<?xml version="1.0" encoding="utf-8"?>
<!-- Generator: Adobe Illustrator 16.0.4, SVG Export Plug-In . SVG Version: 6.00 Build 0)  -->
<!DOCTYPE svg PUBLIC "-//W3C//DTD SVG 1.1//EN" "http://www.w3.org/Graphics/SVG/1.1/DTD/svg11.dtd">
<svg version="1.1" id="Layer_1" xmlns="http://www.w3.org/2000/svg" xmlns:xlink="http://www.w3.org/1999/xlink" x="0px" y="0px"
	 width="192.26px" height="189.742px" viewBox="0 0 192.26 189.742" enable-background="new 0 0 192.26 189.742"
	 xml:space="preserve">
<g opacity="0.3">
	
		<rect x="5.072" y="-156.915" transform="matrix(0.7071 0.7071 -0.7071 0.7071 -0.885 -8.7356)" fill="#FFFFFF" width="10.06" height="302.958"/>
	
		<rect x="15.533" y="-146.455" transform="matrix(0.7071 0.7071 -0.7071 0.7071 9.5751 -13.0686)" fill="#FFFFFF" width="10.06" height="302.958"/>
	
		<rect x="25.993" y="-135.995" transform="matrix(0.7071 0.7071 -0.7071 0.7071 20.0355 -17.4013)" fill="#FFFFFF" width="10.06" height="302.958"/>
	
		<rect x="36.453" y="-125.535" transform="matrix(0.7071 0.7071 -0.7071 0.7071 30.4951 -21.7341)" fill="#FFFFFF" width="10.06" height="302.957"/>
	
		<rect x="46.914" y="-115.074" transform="matrix(0.7071 0.7071 -0.7071 0.7071 40.956 -26.067)" fill="#FFFFFF" width="10.06" height="302.958"/>
	
		<rect x="57.373" y="-104.614" transform="matrix(0.7071 0.7071 -0.7071 0.7071 51.4158 -30.3993)" fill="#FFFFFF" width="10.06" height="302.958"/>
	
		<rect x="67.834" y="-94.154" transform="matrix(0.7071 0.7071 -0.7071 0.7071 61.876 -34.7324)" fill="#FFFFFF" width="10.06" height="302.957"/>
	
		<rect x="78.294" y="-83.694" transform="matrix(0.7071 0.7071 -0.7071 0.7071 72.3363 -39.065)" fill="#FFFFFF" width="10.06" height="302.958"/>
	
		<rect x="88.753" y="-73.233" transform="matrix(0.707 0.7072 -0.7072 0.707 82.8092 -43.3988)" fill="#FFFFFF" width="10.061" height="302.957"/>
	
		<rect x="99.215" y="-62.773" transform="matrix(0.7071 0.7071 -0.7071 0.7071 93.2522 -47.7305)" fill="#FFFFFF" width="10.06" height="302.958"/>
	
		<rect x="109.674" y="-52.314" transform="matrix(0.7071 0.7071 -0.7071 0.7071 103.7115 -52.0628)" fill="#FFFFFF" width="10.06" height="302.958"/>
	
		<rect x="120.134" y="-41.852" transform="matrix(0.707 0.7072 -0.7072 0.707 114.1946 -56.3972)" fill="#FFFFFF" width="10.061" height="302.957"/>
	
		<rect x="130.595" y="-31.393" transform="matrix(0.7072 0.7071 -0.7071 0.7072 124.6248 -60.7282)" fill="#FFFFFF" width="10.06" height="302.958"/>
	
		<rect x="141.055" y="-20.933" transform="matrix(0.7071 0.7071 -0.7071 0.7071 135.0908 -65.0611)" fill="#FFFFFF" width="10.06" height="302.958"/>
	
		<rect x="151.515" y="-10.471" transform="matrix(0.7071 0.7072 -0.7072 0.7071 145.5728 -69.3952)" fill="#FFFFFF" width="10.062" height="302.958"/>
	
		<rect x="161.976" y="-0.012" transform="matrix(0.7071 0.7071 -0.7071 0.7071 156.0103 -73.7268)" fill="#FFFFFF" width="10.06" height="302.958"/>
	
		<rect x="172.435" y="10.449" transform="matrix(0.7071 0.7072 -0.7072 0.7071 166.4948 -78.0606)" fill="#FFFFFF" width="10.062" height="302.957"/>
	
		<rect x="182.896" y="20.908" transform="matrix(0.7071 0.7071 -0.7071 0.7071 176.9297 -82.3925)" fill="#FFFFFF" width="10.06" height="302.958"/>
	
		<rect x="193.356" y="31.368" transform="matrix(0.7071 0.7071 -0.7071 0.7071 187.3983 -86.7252)" fill="#FFFFFF" width="10.06" height="302.958"/>
</g>
<g>
</g>
<g>
</g>
<g>
</g>
<g>
</g>
<g>
</g>
<g>
</g>
<g>
</g>
<g>
</g>
<g>
</g>
<g>
</g>
<g>
</g>
<g>
</g>
<g>
</g>
<g>
</g>
<g>
</g>
</svg>
